<svg version="1.1" xmlns="http://www.w3.org/2000/svg" xmlns:xlink="http://www.w3.org/1999/xlink" style="" xml:space="preserve" width="612" height="612"><rect id="backgroundrect" width="100%" height="100%" x="0" y="0" fill="none" stroke="none"/>
















<g class="currentLayer" style=""><title>Layer 1</title><g id="svg_1" class="selected" fill-opacity="1" fill="#607d8b">
	<g id="svg_2" fill="#607d8b">
		<g id="svg_3" fill="#607d8b">
			<path d="M589.328,90.508H534.97v-36.3C534.971,24.317,510.655,0,480.765,0c-29.889,0-54.205,24.317-54.205,54.208v36.3h-66.358     v-36.3C360.203,24.317,335.888,0,305.998,0c-29.888,0-54.205,24.317-54.205,54.208v36.3h-66.356v-36.3     C185.439,24.317,161.121,0,131.233,0S77.029,24.317,77.029,54.208v36.3H22.67c-10.195,0-18.458,8.265-18.458,18.458V537.12     c0,41.29,33.59,74.88,74.881,74.88h453.814c41.29,0,74.881-33.59,74.881-74.88V108.966     C607.786,98.773,599.525,90.508,589.328,90.508z M570.87,207.023H41.128v-79.6H77.03v9.349c0,29.889,24.317,54.205,54.203,54.205     c29.888,0,54.206-24.317,54.206-54.205v-9.349h66.356v9.349c0,29.889,24.317,54.205,54.205,54.205     c29.889,0,54.205-24.317,54.205-54.205v-9.349h66.358v9.349c0,29.889,24.317,54.205,54.205,54.205     c29.889,0,54.205-24.317,54.205-54.205v-9.349h35.901v79.6H570.87z M463.476,54.208c0-9.535,7.754-17.292,17.289-17.292     c9.532,0,17.289,7.757,17.289,17.292v82.565c0,9.532-7.757,17.289-17.289,17.289c-9.535,0-17.289-7.757-17.289-17.289V54.208z      M288.711,54.208c0-9.535,7.755-17.292,17.289-17.292c9.532,0,17.289,7.757,17.289,17.292v54.743c0,0.003,0,0.009,0,0.015     c0,0.003,0,0.009,0,0.015v27.791c0,9.532-7.757,17.289-17.289,17.289c-9.534,0-17.289-7.757-17.289-17.289V54.208z      M113.944,54.208c0-9.535,7.755-17.292,17.289-17.292c9.535,0,17.29,7.757,17.29,17.292v54.728c0,0.009-0.002,0.018-0.002,0.029     c0,0.009,0.002,0.018,0.002,0.031v27.778c0,9.532-7.755,17.289-17.29,17.289c-9.532,0-17.287-7.757-17.287-17.289V54.208H113.944     z M570.87,537.119c0,20.933-17.03,37.965-37.965,37.965H79.091c-20.933,0-37.965-17.03-37.965-37.965V243.936H570.87V537.119z" id="svg_4" fill="#607d8b"/>
			<path d="M95.486,334.921h421.026c10.193,0,18.458-8.264,18.458-18.458s-8.265-18.458-18.458-18.458H95.486     c-10.195,0-18.458,8.265-18.458,18.458S85.292,334.921,95.486,334.921z" id="svg_5" fill="#607d8b"/>
			<path d="M95.486,420.496h421.026c10.193,0,18.458-8.264,18.458-18.458c0-10.193-8.265-18.458-18.458-18.458H95.486     c-10.195,0-18.458,8.265-18.458,18.458C77.029,412.232,85.292,420.496,95.486,420.496z" id="svg_6" fill="#607d8b"/>
			<path d="M95.486,506.072h421.026c10.193,0,18.458-8.264,18.458-18.458c0-10.193-8.265-18.458-18.458-18.458H95.486     c-10.195,0-18.458,8.264-18.458,18.458C77.029,497.807,85.292,506.072,95.486,506.072z" id="svg_7" fill="#607d8b"/>
		</g>
	</g>
</g><g id="svg_8">
</g><g id="svg_9">
</g><g id="svg_10">
</g><g id="svg_11">
</g><g id="svg_12">
</g><g id="svg_13">
</g><g id="svg_14">
</g><g id="svg_15">
</g><g id="svg_16">
</g><g id="svg_17">
</g><g id="svg_18">
</g><g id="svg_19">
</g><g id="svg_20">
</g><g id="svg_21">
</g><g id="svg_22">
</g></g></svg>